Coordinates
version=1
nRows=29
nColumns=22
inDegrees=yes

Units are S.I. units (second, meters, Newtons, ...)
If the header above contains a line with 'inDegrees', this indicates whether rotational values are in degrees (yes) or radians (no).

endheader
time	pelvis_tilt	pelvis_list	pelvis_rotation	pelvis_tx	pelvis_ty	pelvis_tz	hip_flexion_r	hip_adduction_r	hip_rotation_r	knee_angle_r	ankle_angle_r	subtalar_angle_r	hip_flexion_l	hip_adduction_l	hip_rotation_l	knee_angle_l	ankle_angle_l	subtalar_angle_l	lumbar_extension	lumbar_bending	lumbar_rotation
      1.24000000	      4.96244790	     -4.90521575	     -1.13652307	      0.95365376	      0.92149443	      0.14700470	      6.49026772	      9.02302249	     -0.69262915	    -16.15643750	     -0.67242997	     -2.13655353	     10.23235832	     -9.79727123	     -0.31512778	    -60.71026162	      4.12018286	      2.39555872	    -13.81702476	      0.53265226	      2.83655969
      1.25000000	      4.82334657	     -4.92521846	     -1.27931148	      0.95085782	      0.92148358	      0.14637418	      6.66819662	      8.97776904	     -0.65407856	    -15.83911677	     -0.98437824	     -1.98224621	      9.66357840	     -9.70230114	     -0.10571880	    -61.05131734	      3.00521330	      3.29461565	    -13.56434351	      0.57286907	      2.75669793
      1.26000000	      4.68244587	     -4.93930156	     -1.41758165	      0.94794677	      0.92144982	      0.14568053	      6.85628952	      8.92250463	     -0.64572638	    -15.52046435	     -1.31127450	     -1.83899298	      9.04588398	     -9.59030419	      0.07862487	    -61.19221404	      2.00434591	      4.19310036	    -13.31845250	      0.60973439	      2.64607874
      1.27000000	      4.54465393	     -4.95534073	     -1.53930026	      0.94489818	      0.92137864	      0.14488631	      7.05295165	      8.86569383	     -0.64643643	    -15.20684392	     -1.61817025	     -1.69910831	      8.39010170	     -9.45695253	      0.26945416	    -61.15247096	      1.13657880	      5.05293308	    -13.08552614	      0.65605094	      2.52406355
      1.28000000	      4.41177864	     -4.96370101	     -1.65046015	      0.94171850	      0.92126717	      0.14402470	      7.26122102	      8.79834475	     -0.66573533	    -14.90730562	     -1.92529388	     -1.56153655	      7.69708168	     -9.30384212	      0.44195736	    -60.93708615	      0.41616190	      5.82405840	    -12.86448158	      0.69579910	      2.37278095
      1.29000000	      4.28063652	     -4.96627371	     -1.74556916	      0.93839210	      0.92110330	      0.14306944	      7.48081917	      8.72173626	     -0.68924821	    -14.61163807	     -2.23664054	     -1.43012357	      6.98322341	     -9.12437501	      0.61521909	    -60.56254932	     -0.15391462	      6.45790980	    -12.65047094	      0.73361981	      2.21010141
      1.30000000	      4.15867590	     -4.96179809	     -1.82858359	      0.93491612	      0.92088620	      0.14205335	      7.71506708	      8.63624471	     -0.72707590	    -14.34225091	     -2.54641217	     -1.30453040	      6.24859754	     -8.93310281	      0.76106651	    -60.04147260	     -0.59175386	      6.94930527	    -12.45159452	      0.76403540	      2.01084318
      1.31000000	      4.04173933	     -4.95581486	     -1.89379608	      0.93128610	      0.92060636	      0.14095829	      7.95874194	      8.54651421	     -0.76675488	    -14.07808142	     -2.86477290	     -1.17830313	      5.50238025	     -8.73199240	      0.89469351	    -59.38030541	     -0.86278337	      7.33190625	    -12.26233308	      0.79395726	      1.79948789
      1.32000000	      3.93050086	     -4.95295837	     -1.94723430	      0.92748608	      0.92025732	      0.13982611	      8.21937938	      8.46095892	     -0.81661207	    -13.83457865	     -3.17552678	     -1.06096538	      4.75738159	     -8.53462090	      1.00455776	    -58.59955818	     -1.01839381	      7.57261550	    -12.08716132	      0.82260170	      1.56127916
      1.33000000	      3.76029901	     -4.96763936	     -1.98934516	      0.92347274	      0.91972816	      0.13864470	      8.57915887	      8.39597023	     -0.86670016	    -13.62729449	     -3.51543555	     -1.01696470	      4.10284385	     -8.36607474	      1.08222786	    -57.73056351	     -0.99062466	      7.60619530	    -11.85475022	      0.87241302	      1.31621878
      1.34000000	      3.72198735	     -4.97759727	     -2.00749723	      0.91935388	      0.91935610	      0.13738751	      8.78383738	      8.31700589	     -0.92376827	    -13.38275008	     -3.80653745	     -0.83587463	      3.29018542	     -8.18930851	      1.12523212	    -56.69014307	     -0.93259912	      7.67291739	    -11.77747889	      0.91052632	      1.05154779
      1.35000000	      3.61759427	     -5.01714362	     -2.02182965	      0.91499310	      0.91880189	      0.13610830	      9.09527282	      8.27375352	     -0.97625949	    -13.17109241	     -4.14483954	     -0.71996832	      2.58631772	     -8.05839325	      1.12762694	    -55.57321246	     -0.71776843	      7.51761179	    -11.64176664	      0.97882491	      0.79139525
      1.36000000	      3.51638187	     -5.07184348	     -2.02877603	      0.91040353	      0.91818309	      0.13478820	      9.43452716	      8.24496236	     -1.03617884	    -12.98736306	     -4.49753902	     -0.61051334	      1.90421062	     -7.95311736	      1.08343457	    -54.35290732	     -0.39762410	      7.19210694	    -11.52936507	      1.06088407	      0.52688207
      1.37000000	      3.41404112	     -5.14014648	     -2.02821748	      0.90556839	      0.91749816	      0.13341842	      9.80322049	      8.22831075	     -1.09851095	    -12.82273452	     -4.86829642	     -0.50807207	      1.24983204	     -7.86724500	      1.00307166	    -53.03277308	      0.04006668	      6.71539029	    -11.43852571	      1.15661572	      0.26806833
      1.38000000	      3.32289783	     -5.21822662	     -2.02771673	      0.90044077	      0.91675334	      0.13201926	     10.21057142	      8.22069766	     -1.16422993	    -12.71498431	     -5.27102543	     -0.40252999	      0.61423339	     -7.80084864	      0.86848391	    -51.62475270	      0.57105369	      6.08611336	    -11.39365076	      1.25713391	      0.00439467
      1.39000000	      3.22346911	     -5.29509922	     -2.01658517	      0.89502316	      0.91592251	      0.13055035	     10.66241084	      8.20744832	     -1.22749236	    -12.63318593	     -5.67304015	     -0.30726785	      0.01783232	     -7.72788383	      0.72538837	    -50.14064339	      1.23587796	      5.40262102	    -11.36949360	      1.35609180	     -0.24918739
      1.40000000	      3.12564977	     -5.36395237	     -2.00424406	      0.88926481	      0.91500691	      0.12902330	     11.17224642	      8.18155570	     -1.29028113	    -12.61775019	     -6.09618982	     -0.21326935	     -0.54012341	     -7.64419759	      0.55665461	    -48.61537465	      2.00914128	      4.68275849	    -11.38693153	      1.44405631	     -0.50175886
      1.41000000	      3.02582461	     -5.41899199	     -1.98481515	      0.88314918	      0.91399566	      0.12743032	     11.75050224	      8.13568902	     -1.35067960	    -12.67908113	     -6.53544761	     -0.12092918	     -1.04408162	     -7.54348563	      0.37286129	    -47.09497606	      2.89877593	      3.97569792	    -11.44604161	      1.51459980	     -0.74885667
      1.42000000	      2.92183551	     -5.45550290	     -1.96748124	      0.87666389	      0.91287836	      0.12576333	     12.39586044	      8.06445098	     -1.40364846	    -12.80741504	     -6.97886652	     -0.02884139	     -1.47923904	     -7.41454342	      0.17961645	    -45.63181906	      3.93649454	      3.30961881	    -11.54583771	      1.56553984	     -0.98366797
      1.43000000	      2.82603784	     -5.47036919	     -1.95626263	      0.86978272	      0.91167327	      0.12404614	     13.11859941	      7.96589353	     -1.45065435	    -13.04421268	     -7.46501020	      0.08286995	     -1.83769601	     -7.26103306	     -0.04792139	    -44.28306677	      5.09360904	      2.59989450	    -11.70741023	      1.58660202	     -1.20117184
      1.44000000	      2.72614088	     -5.45952863	     -1.94645043	      0.86257578	      0.91036796	      0.12227492	     13.89347282	      7.83674210	     -1.46699021	    -13.32417304	     -7.92773721	      0.20116007	     -2.10262211	     -7.07687895	     -0.29505319	    -43.07339063	      6.42571031	      1.94641134	    -11.90338798	      1.57736089	     -1.40009897
      1.45000000	      2.63757948	     -5.41585700	     -1.94542297	      0.85505455	      0.90900347	      0.12047185	     14.71482492	      7.67005579	     -1.47301218	    -13.66697650	     -8.42339077	      0.34983719	     -2.27858638	     -6.85586978	     -0.58112773	    -42.01727488	      7.84437089	      1.23689948	    -12.15132552	      1.52471369	     -1.57296595
      1.46000000	      2.56681404	     -5.34275204	     -1.94888706	      0.84728276	      0.90759673	      0.11863844	     15.54918476	      7.47169740	     -1.42435237	    -14.03206941	     -8.89542116	      0.52815732	     -2.37269982	     -6.60502562	     -0.91269595	    -41.10944790	      9.35090473	      0.50139799	    -12.44813423	      1.43783424	     -1.74377935
      1.47000000	      2.52198356	     -5.22457483	     -1.95800863	      0.83929658	      0.90620931	      0.11677978	     16.39975769	      7.21917907	     -1.40382611	    -14.43715403	     -9.45974896	      0.77477856	     -2.39749701	     -6.30427049	     -1.28238043	    -40.32153537	     10.79950404	     -0.35074063	    -12.79799465	      1.29598972	     -1.89549607
      1.48000000	      2.50005825	     -5.07452969	     -1.97099397	      0.83116965	      0.90483675	      0.11492193	     17.21864239	      6.93639749	     -1.29449898	    -14.80098189	     -9.98916742	      1.06424589	     -2.36349186	     -5.97209945	     -1.67794663	    -39.63376933	     12.26541664	     -1.16520248	    -13.18339252	      1.11760584	     -2.06658192
      1.49000000	      2.50834432	     -4.88862938	     -1.98542648	      0.82291702	      0.90354230	      0.11304477	     18.03363655	      6.60447846	     -1.23915071	    -15.18286990	    -10.63109618	      1.48158876	     -2.28354731	     -5.60045923	     -2.07935667	    -39.02450034	     13.58990543	     -2.07043058	    -13.61243276	      0.89996664	     -2.21980887
      1.50000000	      2.53068500	     -4.67256117	     -2.00427416	      0.81461824	      0.90232289	      0.11119130	     18.79162859	      6.24504371	     -1.08247275	    -15.46657556	    -11.26460681	      1.97766008	     -2.16540721	     -5.19717835	     -2.46072283	    -38.46144313	     14.86783342	     -2.88473002	    -14.05018685	      0.64984944	     -2.39942940
      1.51000000	      2.57954359	     -4.45429809	     -2.02240086	      0.80629465	      0.90121974	      0.10934336	     19.51925623	      5.87044155	     -0.98144022	    -15.73081437	    -11.96967933	      2.67106468	     -2.02179817	     -4.79632651	     -2.82259149	    -37.95068564	     15.99961410	     -3.71015316	    -14.51199294	      0.40228650	     -2.56167909
      1.52000000	      2.62822942	     -4.22153917	     -2.04758537	      0.79798078	      0.90022118	      0.10753719	     20.18967604	      5.48569483	     -0.76796369	    -15.88536854	    -12.67432391	      3.49755304	     -1.83943061	     -4.37934518	     -3.12786193	    -37.47278297	     17.03667364	     -4.42392122	    -14.95821424	      0.14150650	     -2.73582113
